<?xml version="1.0" encoding="iso-8859-1"?>
<!-- Generator: Adobe Illustrator 19.0.0, SVG Export Plug-In . SVG Version: 6.00 Build 0)  -->
<svg version="1.1" id="Capa_1" xmlns="http://www.w3.org/2000/svg" xmlns:xlink="http://www.w3.org/1999/xlink" x="0px" y="0px"
	 viewBox="0 0 512 512" style="enable-background:new 0 0 512 512;" xml:space="preserve">
<g>
	<g>
		<path d="M403.182,57.265C360.395,25.574,309.619,8.828,256.344,8.828c-48.578,0-96.839,13.983-132.758,37.976V8.828
			c0-4.873-3.955-8.828-8.828-8.828c-4.873,0-8.828,3.955-8.828,8.828v55.534c0,3.425,1.977,6.541,5.076,7.989
			c3.098,1.457,6.762,0.98,9.393-1.201c33.668-27.966,84.489-44.668,135.945-44.668c49.461,0,96.6,15.554,136.324,44.977
			c1.58,1.165,3.425,1.73,5.244,1.73c2.701,0,5.367-1.236,7.106-3.575C407.923,65.695,407.093,60.169,403.182,57.265z"/>
	</g>
</g>
<g>
	<g>
		<path d="M503.172,105.931h-55.534c-3.425,0-6.541,1.977-7.989,5.076c-1.448,3.098-0.989,6.762,1.201,9.393
			c27.966,33.66,44.668,84.48,44.668,135.945c0,49.47-15.554,96.609-44.977,136.324c-2.904,3.919-2.075,9.445,1.836,12.35
			c1.58,1.165,3.425,1.73,5.244,1.73c2.701,0,5.367-1.236,7.106-3.575c31.691-42.787,48.437-93.564,48.437-146.838
			c0-48.578-13.983-96.847-37.976-132.758h37.976c4.873,0,8.828-3.955,8.828-8.828C511.991,109.877,508.045,105.931,503.172,105.931
			z"/>
	</g>
</g>
<g>
	<g>
		<path d="M400.993,439.649c-3.099-1.448-6.753-0.989-9.393,1.201c-33.66,27.966-84.489,44.668-135.936,44.668
			c-49.47,0-96.609-15.554-136.333-44.977c-3.919-2.904-9.445-2.074-12.35,1.836c-2.904,3.911-2.074,9.445,1.836,12.35
			c42.787,31.691,93.564,48.437,146.838,48.437c48.569,0,96.839-13.983,132.758-37.976v37.985c0,4.873,3.955,8.828,8.828,8.828
			c4.873,0,8.828-3.955,8.828-8.828v-55.534C406.069,444.213,404.092,441.097,400.993,439.649z"/>
	</g>
</g>
<g>
	<g>
		<path d="M71.159,391.601c-27.983-33.668-44.676-84.48-44.676-135.945c0-49.461,15.554-96.6,44.977-136.324
			c2.904-3.919,2.075-9.445-1.836-12.35c-3.919-2.904-9.445-2.074-12.35,1.836C25.582,151.605,8.836,202.381,8.836,255.656
			c0,48.578,13.983,96.839,37.976,132.758H8.836c-4.873,0-8.828,3.955-8.828,8.828s3.955,8.828,8.828,8.828h55.534
			c3.425,0,6.541-1.977,7.989-5.076C73.816,397.895,73.348,394.231,71.159,391.601z"/>
	</g>
</g>
<g>
	<g>
		<path d="M256,70.621C153.785,70.621,70.621,153.777,70.621,256S153.785,441.379,256,441.379
			c102.223,0,185.379-83.156,185.379-185.379S358.215,70.621,256,70.621z M247.172,114.759c0-4.873,3.955-8.828,8.828-8.828
			s8.828,3.955,8.828,8.828v17.655c0,4.873-3.955,8.828-8.828,8.828s-8.828-3.955-8.828-8.828V114.759z M132.414,264.828h-17.655
			c-4.873,0-8.828-3.955-8.828-8.828s3.955-8.828,8.828-8.828h17.655c4.873,0,8.828,3.955,8.828,8.828
			S137.287,264.828,132.414,264.828z M173.965,350.517l-11.591,11.591c-1.721,1.721-3.981,2.586-6.241,2.586
			c-2.26,0-4.52-0.865-6.25-2.586c-3.443-3.452-3.443-9.039,0-12.482l11.591-11.591c3.452-3.452,9.039-3.452,12.491,0
			C177.408,341.486,177.408,347.074,173.965,350.517z M173.965,173.965c-1.721,1.721-3.99,2.586-6.25,2.586
			c-2.26,0-4.52-0.865-6.241-2.586l-11.591-11.591c-3.452-3.443-3.452-9.031,0-12.482c3.452-3.452,9.039-3.452,12.491,0
			l11.591,11.591C177.408,164.926,177.408,170.514,173.965,173.965z M264.828,397.241c0,4.873-3.955,8.828-8.828,8.828
			s-8.828-3.955-8.828-8.828v-17.655c0-4.873,3.955-8.828,8.828-8.828s8.828,3.955,8.828,8.828V397.241z M264.969,255.991
			c-0.238,2.436-0.953,4.723-2.904,6.497c-3.884,3.531-10.946,2.339-15.898,2.339c-6.1,0-12.191,0-18.291,0
			c-8.28,0-16.561,0-24.841,0c-4.873,0-8.828-3.955-8.828-8.828s3.955-8.828,8.828-8.828h44.323l-0.185-79.431
			c-0.009-4.873,3.928-8.836,8.828-8.845c4.864,0,8.819,3.937,8.828,8.81c0.018,5.561,0.026,11.123,0.044,16.684
			c0.026,11.617,0.053,23.225,0.079,34.843c0.026,10.09,0.044,20.171,0.071,30.261C265.031,251.586,265.181,253.846,264.969,255.991
			z M362.108,362.116c-1.721,1.721-3.981,2.586-6.241,2.586s-4.52-0.865-6.241-2.586l-11.591-11.591
			c-3.452-3.452-3.452-9.031,0-12.482s9.031-3.452,12.482,0l11.591,11.591C365.559,353.077,365.559,358.665,362.108,362.116z
			 M362.108,162.375l-11.591,11.591c-1.721,1.721-3.981,2.586-6.241,2.586c-2.26,0-4.52-0.865-6.241-2.586
			c-3.452-3.452-3.452-9.031,0-12.482l11.591-11.591c3.452-3.452,9.031-3.452,12.482,0
			C365.559,153.344,365.559,158.923,362.108,162.375z M397.241,264.828h-17.655c-4.873,0-8.828-3.955-8.828-8.828
			s3.955-8.828,8.828-8.828h17.655c4.873,0,8.828,3.955,8.828,8.828S402.114,264.828,397.241,264.828z"/>
	</g>
</g>
<g>
</g>
<g>
</g>
<g>
</g>
<g>
</g>
<g>
</g>
<g>
</g>
<g>
</g>
<g>
</g>
<g>
</g>
<g>
</g>
<g>
</g>
<g>
</g>
<g>
</g>
<g>
</g>
<g>
</g>
</svg>
